<?xml version="1.0" standalone="no"?>
<!DOCTYPE svg PUBLIC "-//W3C//DTD SVG 1.1//EN" "http://www.w3.org/Graphics/SVG/1.1/DTD/svg11.dtd" >
<!--
2013-9-30: Created.
-->
<svg>
<metadata>
Created by iconfont
</metadata>
<defs>

<font id="Micon" horiz-adv-x="1024" >
  <font-face
    font-family="Micon"
    font-weight="500"
    font-stretch="normal"
    units-per-em="1024"
    ascent="896"
    descent="-128"
  />
    <missing-glyph />
    
    <glyph glyph-name="uploadfile" unicode="&#58898;" d="M768 544a224 224 0 0 0 0-448h-32a32 32 0 0 0 0 64h32a160 160 0 0 1 0 320 147.2 147.2 0 0 1-27.84-2.56 32 32 0 0 0-38.08 27.52 192 192 0 0 1-380.16 0 32 32 0 0 0-38.08-27.52A147.2 147.2 0 0 1 256 480a160 160 0 0 1 0-320h32a32 32 0 0 0 0-64h-32a224 224 0 0 0 0 448h8.32a256 256 0 0 0 495.36 0zM544 0a32 32 0 0 0-64 0V288a32 32 0 0 0 64 0zM424 138.88a32 32 0 1 0-48 42.24l112 128a32 32 0 0 0 48 0l112-128a32 32 0 0 0-48-42.24l-88 100.48z"  horiz-adv-x="1024" />

    
    <glyph glyph-name="reset" unicode="&#58919;" d="M181.731 326.394l63.275 8.713A331.732 331.732 0 0 0 242.255 395l-63.809 2.835a395.86 395.86 0 0 1 3.285-71.441zM569.205-10.94500000000005c52.791 0 104.019 10.346 152.263 30.752 46.581 19.703 88.409 47.902 124.321 83.814 35.912 35.912 64.111 77.74 83.814 124.322 20.405 48.244 30.752 99.471 30.752 152.263 0 52.791-10.346 104.019-30.752 152.263-19.703 46.581-47.902 88.409-83.814 124.321-35.912 35.912-77.74 64.111-124.321 83.814-48.244 20.405-99.472 30.752-152.263 30.752-101.406 0-197.547-38.644-270.712-108.813-72.938-69.952-115.572-163.96-120.047-264.706L242.255 395c7.783 175.224 151.397 312.483 326.95 312.483 180.462 0 327.278-146.817 327.278-327.278S749.667 52.926000000000045 569.205 52.926000000000045c-69.625 0-136.091 21.563-192.21 62.357L339.44 63.620000000000005c67.106-48.781 146.558-74.565 229.765-74.565zM222.367 266.67100000000005c8.173 0 16.346 3.118 22.581 9.354l117.233 117.232c12.472 12.471 12.472 32.692 0 45.164-12.471 12.472-32.692 12.472-45.163 0L199.786 321.18899999999996c-12.472-12.472-12.472-32.693 0-45.164 6.236-6.236 14.409-9.354 22.581-9.354zM215.632 264.602c8.174 0 16.345 3.117 22.581 9.354 12.472 12.471 12.472 32.692 0 45.164L120.981 436.352c-12.47 12.471-32.691 12.471-45.163 0-12.472-12.472-12.472-32.692 0-45.164l117.233-117.232c6.234-6.235 14.409-9.354 22.581-9.354z"  horiz-adv-x="1024" />

    
    <glyph glyph-name="delete" unicode="&#58937;" d="M874.666667 624.82963h-725.333334c-11.757037 0-21.333333 9.576296-21.333333 21.333333s9.576296 21.333333 21.333333 21.333333h725.333334c11.757037 0 21.333333-9.576296 21.333333-21.333333S886.423704 624.82963 874.666667 624.82963zM640.948148 624.82963H383.051852c-24.272593 0-44.088889 19.816296-44.088889 44.088889v54.992592c0 24.272593 19.816296 44.088889 44.088889 44.088889h257.896296c24.272593 0 44.088889-19.816296 44.088889-44.088889v-54.992592c0-24.272593-19.816296-44.088889-44.088889-44.088889zM383.051852 725.333333c-0.758519 0-1.422222-0.663704-1.422222-1.422222v-54.992592c0-0.758519 0.663704-1.422222 1.422222-1.422223h257.896296c0.758519 0 1.422222 0.663704 1.422222 1.422223v54.992592c0 0.758519-0.663704 1.422222-1.422222 1.422222H383.051852zM721.635556-0.47407399999997324H302.364444c-34.702222 0-63.051852 27.211852-64.379259 61.914074l-23.134815 583.86963c-0.18963 5.878519 1.991111 11.662222 6.068149 15.928889 4.077037 4.266667 9.765926 6.637037 15.739259 6.637037h550.779259c5.878519 0 11.567407-2.37037 15.739259-6.637037 4.077037-4.266667 6.257778-10.05037 6.068148-15.928889L786.014815 61.440000000000055c-1.327407-34.702222-29.677037-61.914074-64.379259-61.914074z m-462.411852 624.82963l22.281481-561.208889c0.474074-11.282963 9.576296-20.100741 20.859259-20.100741h419.271112c11.282963 0 20.48 8.817778 20.859259 20.100741l22.281481 561.208889H259.223704zM417.185185 118.99259300000006c-12.8 0-23.22963 10.42963-23.229629 23.229629V525.2740739999999c0 12.8 10.42963 23.22963 23.229629 23.22963s23.22963-10.42963 23.22963-23.22963v-383.051852c0-12.8-10.42963-23.22963-23.22963-23.229629zM606.814815 118.99259300000006c-12.8 0-23.22963 10.42963-23.22963 23.229629V525.2740739999999c0 12.8 10.42963 23.22963 23.22963 23.22963s23.22963-10.42963 23.229629-23.22963v-383.051852c0-12.8-10.42963-23.22963-23.229629-23.229629z"  horiz-adv-x="1024" />

    
    <glyph glyph-name="sync" unicode="&#58910;" d="M377.792 374.4a32 32 0 0 0-0.512-45.28L302.496 256H800a32 32 0 1 0 0-64H302.496l74.784-73.12a32 32 0 0 0-44.768-45.76l-130.88 128a31.936 31.936 0 0 0 0 45.76l130.88 128a32 32 0 0 0 45.28-0.512z m268.384 319.968a32 32 0 0 0 42.24 3.136l3.008-2.624 130.944-128a31.936 31.936 0 0 0 2.88-42.56l-2.88-3.2-130.944-128a32.032 32.032 0 1 0-47.424 42.784l2.72 2.976L721.472 512H224a32 32 0 0 0-3.744 63.808L224 576h497.472L646.72 649.12a32 32 0 0 0-0.544 45.248z"  horiz-adv-x="1024" />

    
    <glyph glyph-name="plus" unicode="&#58977;" d="M853.333333 341.33333300000004L554.666667 341.33333300000004l0-298.666667c0-23.466667-19.2-42.666667-42.666667-42.666667s-42.666667 19.2-42.666667 42.666667L469.333333 341.33333300000004 170.666667 341.33333300000004c-23.466667 0-42.666667 19.2-42.666667 42.666667 0 23.466667 19.2 42.666667 42.666667 42.666667l298.666667 0L469.333333 725.333333c0 23.466667 19.2 42.666667 42.666667 42.666667s42.666667-19.2 42.666667-42.666667l0-298.666667 298.666667 0c23.466667 0 42.666667-19.2 42.666667-42.666667C896 360.53333299999997 876.8 341.33333300000004 853.333333 341.33333300000004z"  horiz-adv-x="1024" />

    
    <glyph glyph-name="search" unicode="&#59539;" d="M438.070857 132.20571399999994a329.508571 329.508571 0 0 1 191.579429 61.732572l203.136-203.154286a48.603429 48.603429 0 0 1 34.706285-14.134857c27.867429 0 48 21.430857 48 48.859428 0 12.854857-4.278857 24.850286-13.714285 34.267429L699.922286 262.08914300000004c42.422857 55.716571 67.712 124.708571 67.712 199.716571 0 181.284571-148.278857 329.563429-329.563429 329.563429-181.723429 0-329.563429-148.278857-329.563428-329.563429S256.347429 132.20571399999994 438.070857 132.20571399999994z m0 71.149715c-141.860571 0-258.432 116.992-258.432 258.432 0 141.421714 116.571429 258.432 258.432 258.432 141.421714 0 258.432-117.010286 258.432-258.432 0-141.44-117.010286-258.432-258.432-258.432z"  horiz-adv-x="1024" />

    
    <glyph glyph-name="stop" unicode="&#59385;" d="M512 896c-282.784 0-512-229.216-512-512s229.216-512 512-512 512 229.216 512 512-229.216 512-512 512zM512-32c-229.76 0-416 186.24-416 416s186.24 416 416 416 416-186.24 416-416-186.24-416-416-416zM320 576l384 0 0-384-384 0z"  horiz-adv-x="1024" />

    
    <glyph glyph-name="clear" unicode="&#58894;" d="M615.564215 489.429191M885.03553 347.88240800000005l-15.940041 0 0-243.09662c0-70.937632 15.940041-131.517359 15.940041-131.517359 0-17.530258-14.346753-31.882128-31.883151-31.882128L167.689698-58.613699999999994c-17.532305 0-31.878035 14.351869-31.878035 31.882128 0 0 15.940041 58.190307 15.940041 128.32976L151.751704 347.88240800000005l-15.940041 0c-17.537422 0-31.883151 14.349823-31.883151 31.888268L103.928512 539.1751750000001c0 17.537422 14.34573 31.884175 31.883151 31.884175l270.995017 0L406.806681 746.41003c0 43.838438 35.867906 79.70532 79.707366 79.70532l47.822169 0c43.838438 0 79.704296-35.866882 79.704296-79.70532l0-175.349657 270.996041 0c17.537422 0 31.882128-14.346753 31.882128-31.884175l0-159.41064C916.917658 362.23223099999996 902.572952 347.88240800000005 885.03553 347.88240800000005L885.03553 347.88240800000005 885.03553 347.88240800000005zM335.071893-26.726454999999987L335.071893 184.49110700000006c0 6.374174 5.583159 11.951193 11.95631 11.951193l7.966439 0c6.380314 0 11.961426-5.577019 11.961426-11.951193l0-211.217562 135.495974 0L502.452042 184.49110700000006c0 6.374174 5.581112 11.951193 11.954263 11.951193l7.965415 0c6.385431 0 11.962449-5.577019 11.962449-11.951193l0-211.217562 127.526465 0L661.860634 184.49110700000006c0 6.374174 5.577019 11.951193 11.951193 11.951193l7.972579 0c6.377244 0 11.955286-5.577019 11.955286-11.951193l0-211.217562 159.411663 0c0 0-15.939017 57.388035-15.939017 128.324644L837.212338 347.88240800000005 183.633832 347.88240800000005l0-246.284219c0-70.936609-15.945157-128.324644-15.945157-128.324644L335.071893-26.726454999999987 335.071893-26.726454999999987 335.071893-26.726454999999987zM885.03553 523.238204c0 8.768711-7.17133 15.936971-15.940041 15.936971L582.156338 539.1751750000001 582.156338 738.437451c0 31.085996-24.708751 55.793724-55.794747 55.793724l-31.878035 0c-31.084972 0-55.79884-24.707728-55.79884-55.793724l0-199.262276L151.750681 539.1751750000001c-8.769734 0-15.940041-7.16826-15.940041-15.936971l0-127.528512c0-8.769734 7.170307-15.940041 15.940041-15.940041l31.883151 0 653.578506 0 31.882128 0c8.768711 0 15.940041 7.170307 15.940041 15.940041L885.034507 523.238204 885.03553 523.238204 885.03553 523.238204zM885.03553 523.238204M885.03553 347.88240800000005l-15.940041 0 0-243.09662c0-70.937632 15.940041-131.517359 15.940041-131.517359 0-17.530258-14.346753-31.882128-31.883151-31.882128L167.689698-58.613699999999994c-17.532305 0-31.878035 14.351869-31.878035 31.882128 0 0 15.940041 58.190307 15.940041 128.32976L151.751704 347.88240800000005l-15.940041 0c-17.537422 0-31.883151 14.349823-31.883151 31.888268L103.928512 539.1751750000001c0 17.537422 14.34573 31.884175 31.883151 31.884175l270.995017 0L406.806681 746.41003c0 43.838438 35.867906 79.70532 79.707366 79.70532l47.822169 0c43.838438 0 79.704296-35.866882 79.704296-79.70532l0-175.349657 270.996041 0c17.537422 0 31.882128-14.346753 31.882128-31.884175l0-159.41064C916.917658 362.23223099999996 902.572952 347.88240800000005 885.03553 347.88240800000005L885.03553 347.88240800000005 885.03553 347.88240800000005zM335.071893-16.49339299999997L335.071893 184.49110700000006c0 6.374174 5.583159 11.951193 11.95631 11.951193l7.966439 0c6.380314 0 11.961426-5.577019 11.961426-11.951193l0-200.984501 135.495974 0L502.452042 184.49110700000006c0 6.374174 5.581112 11.951193 11.954263 11.951193l7.965415 0c6.385431 0 11.962449-5.577019 11.962449-11.951193l0-200.984501 127.526465 0L661.860634 184.49110700000006c0 6.374174 5.577019 11.951193 11.951193 11.951193l7.972579 0c6.377244 0 11.955286-5.577019 11.955286-11.951193l0-200.984501 149.178601 0c0 0-15.939017 47.154973-15.939017 118.091582L826.979276 347.88240800000005 193.866894 347.88240800000005l0-246.284219c0-70.936609-15.945157-118.091582-15.945157-118.091582L335.071893-16.49339299999997l0-10.233062L335.071893-16.49339299999997zM874.802468 513.005143c0 8.768711-7.17133 15.936971-15.940041 15.936971L571.923276 528.9421130000001 571.923276 738.437451c0 31.085996-24.708751 45.560662-55.794747 45.560662l-11.411911 0c-31.084972 0-55.79884-14.474666-55.79884-45.560662l0-209.495338L161.983743 528.9421130000001c-8.769734 0-15.940041-7.16826-15.940041-15.936971l0-107.062388c0-8.769734 7.170307-15.940041 15.940041-15.940041l31.883151 0 633.112382 0 31.882128 0c8.768711 0 15.940041 7.170307 15.940041 15.940041L874.801445 513.005143l10.233062 0L874.802468 513.005143zM885.03553 523.238204"  horiz-adv-x="1024" />

    
    <glyph glyph-name="console" unicode="&#59088;" d="M853.333333 85.333333V597.333333H170.666667v-512h682.666666m0 682.666667a85.333333 85.333333 0 0 0 85.333334-85.333333v-597.333334a85.333333 85.333333 0 0 0-85.333334-85.333333H170.666667a85.333333 85.333333 0 0 0-85.333334 85.333333V682.666667a85.333333 85.333333 0 0 0 85.333334 85.333333h682.666666m-298.666666-597.333333v85.333333h213.333333v-85.333333h-213.333333m-145.92 170.666666L237.653333 512H358.4l140.8-140.8c16.64-16.64 16.64-43.946667 0-60.586667L359.253333 170.666667H238.506667l170.24 170.666666z"  horiz-adv-x="1024" />

    
    <glyph glyph-name="start" unicode="&#59056;" d="M512-64c-247.424 0-448 200.512-448 448s200.576 448 448 448c247.488 0 448-200.512 448-448s-200.512-448-448-448zM512 757.12v0.256C297.92 757.312 138.88 589.696 138.88 384S306.304 10.879999999999995 512 10.879999999999995s373.12 167.36 373.12 373.12S717.76 757.12 512 757.12z m-66.048-554.816a26.88 26.88 0 0 0-30.336-0.832 35.456 35.456 0 0 0-15.424 29.952V574.0160000000001c0 12.416 5.888 23.872 15.424 29.952a26.88 26.88 0 0 0 30.4-0.896l238.912-171.328c8.64-6.272 13.952-17.28 13.952-29.056s-5.312-22.784-14.016-28.992l-238.912-171.392z"  horiz-adv-x="1024" />

    
    <glyph glyph-name="edit" unicode="&#59264;" d="M798.165333 798.165333a42.624 42.624 0 0 1-60.330666 0l-341.333334-341.333333a42.794667 42.794667 0 0 1-11.221333-19.797333l-42.666667-170.666667a42.666667 42.666667 0 0 1 51.712-51.754667l170.666667 42.666667c7.509333 1.877333 14.378667 5.76 19.84 11.221333l341.333333 341.333334a42.624 42.624 0 0 1 0 60.330666l-128 128z m-265.344-460.970666l-90.197333-22.528 22.570667 90.197333L768 707.669333 835.669333 640l-302.848-302.805333zM213.333333 42.666667h597.333334a42.666667 42.666667 0 0 1 42.666666 42.666666v256h-85.333333v-213.333333H256V640h213.333333V725.333333H213.333333a42.666667 42.666667 0 0 1-42.666666-42.666666v-597.333334a42.666667 42.666667 0 0 1 42.666666-42.666666z"  horiz-adv-x="1024" />

    
    <glyph glyph-name="clear_all" unicode="&#59014;" d="M713.728 610.304l97.28 97.28-97.28 97.28c-8.192 8.192-8.192 20.48 0 28.672s20.48 8.192 28.672 0l97.28-97.28 97.28 97.28c8.192 8.192 20.48 8.192 28.672 0s8.192-20.48 0-28.672l-97.28-97.28 97.28-97.28c8.192-8.192 8.192-20.48 0-28.672-4.096-4.096-9.216-6.144-14.336-6.144s-10.24 2.048-14.336 6.144L839.68 678.912l-97.28-97.28c-4.096-4.096-9.216-6.144-14.336-6.144s-10.24 2.048-14.336 6.144c-8.192 8.192-8.192 20.48 0 28.672zM71.68 691.2h593.92c11.264 0 20.48 9.216 20.48 20.48s-9.216 20.48-20.48 20.48H71.68c-11.264 0-20.48-9.216-20.48-20.48s9.216-20.48 20.48-20.48z m0-256h880.64c11.264 0 20.48 9.216 20.48 20.48s-9.216 20.48-20.48 20.48H71.68c-11.264 0-20.48-9.216-20.48-20.48s9.216-20.48 20.48-20.48z m880.64-471.04H71.68c-11.264 0-20.48-9.216-20.48-20.48s9.216-20.48 20.48-20.48h880.64c11.264 0 20.48 9.216 20.48 20.48s-9.216 20.48-20.48 20.48z m0 256H71.68c-11.264 0-20.48-9.216-20.48-20.48s9.216-20.48 20.48-20.48h880.64c11.264 0 20.48 9.216 20.48 20.48s-9.216 20.48-20.48 20.48z"  horiz-adv-x="1024" />

    
    <glyph glyph-name="not_checked2" unicode="&#58956;" d="M512-64c-247.424 0-448 200.576-448 448 0 247.424 200.576 448 448 448s448-200.576 448-448C960 136.57600000000002 759.424-64 512-64zM512 732.4159999999999C319.552 732.4159999999999 163.584 576.448 163.584 384S319.552 35.51999999999998 512 35.51999999999998c192.448 0 348.416 156.032 348.416 348.416S704.448 732.4159999999999 512 732.4159999999999z"  horiz-adv-x="1024" />

    
    <glyph glyph-name="checked2" unicode="&#58916;" d="M511.999354 840.367838c246.639192 0 446.655354-200.016162 446.655354-446.655354 0-246.639192-200.016162-446.654061-446.655354-446.654061-246.639192 0-446.654061 200.016162-446.654061 446.654061C65.345293 640.351677 265.361455 840.367838 511.999354 840.367838L511.999354 840.367838zM511.999354 600.398869c-114.129455 0-206.685091-92.555636-206.685091-206.686384s92.555636-206.685091 206.685091-206.685091c114.129455 0 206.686384 92.555636 206.686384 206.685091S626.130101 600.398869 511.999354 600.398869L511.999354 600.398869zM511.999354 782.831192c-214.866747 0-389.118707-174.25196-389.118707-389.118707S297.132606 4.593778000000043 511.999354 4.593778000000043c214.86804 0 389.118707 174.25196 389.118707 389.118707S726.867394 782.831192 511.999354 782.831192z"  horiz-adv-x="1024" />

    
    <glyph glyph-name="arrow_left" unicode="&#58946;" d="M719.2-16.600000000000023c14.2 14.2 14.2 37.2 0 51.4L371.7 382.20000000000005c-2.8 2.9-2.8 7.5 0 10.3L719.2 740c14.2 14.2 14.2 37.2 0 51.4-14.2 14.2-37.2 14.2-51.4 0L320.3 444c-15.6-15.6-23.4-36-23.4-56.5s7.8-41 23.4-56.5l347.4-347.4c14.3-14.3 37.3-14.3 51.5-0.2z"  horiz-adv-x="1024" />

    
    <glyph glyph-name="arrow_right" unicode="&#58909;" d="M698.181818 349.090909a35.141818 35.141818 0 0 0-24.669091 10.24l-372.363636 372.363636a34.909091 34.909091 0 0 0 49.338182 49.338182l372.363636-372.363636a34.676364 34.676364 0 0 0 0-49.338182 35.141818 35.141818 0 0 0-24.669091-10.24zM325.818182-23.27272700000003a35.141818 35.141818 0 0 0-24.669091 10.24 34.676364 34.676364 0 0 0 0 49.338182l372.363636 372.363636a34.909091 34.909091 0 0 0 49.338182-49.338182l-372.363636-372.363636a35.141818 35.141818 0 0 0-24.669091-10.24z"  horiz-adv-x="1024" />

    
    <glyph glyph-name="arrow_down" unicode="&#58923;" d="M71.493818 532.4101820000001L449.861818 86.13236400000005a81.454545 81.454545 0 0 1 124.276364 0l378.368 446.277818A51.2 51.2 0 0 1 913.454545 616.727273H110.545455a51.2 51.2 0 0 1-39.051637-84.317091z"  horiz-adv-x="1024" />

    
    <glyph glyph-name="arrow_up" unicode="&#58924;" d="M71.493818 213.55054500000006L449.861818 659.7818179999999a81.454545 81.454545 0 0 0 124.276364 0l378.368-446.254545a51.2 51.2 0 0 0-39.051637-84.317091H110.545455a51.2 51.2 0 0 0-39.051637 84.317091z"  horiz-adv-x="1024" />

    
    <glyph glyph-name="success" unicode="&#58922;" d="M512-128C229.239611-128 0.017919 101.25826199999995 0.017919 384.01865 0.017919 666.77904 229.239611 896.000731 512 896.000731 794.760389 896.000731 1023.982081 666.77904 1023.982081 384.01865 1023.982081 101.25826199999995 794.760389-128 512-128ZM512 822.823864C269.649625 822.823864 73.158216 626.332455 73.158216 383.982081 73.158216 141.631706 269.649625-54.85970299999997 512-54.85970299999997 754.350375-54.85970299999997 950.841784 141.631706 950.841784 383.982081 950.841784 626.332455 754.350375 822.823864 512 822.823864ZM464.678227 211.80982100000006L455.828252 202.99641499999996 454.109455 204.71521199999995C449.465046 202.52100299999995 444.345225 201.13133700000003 438.859703 201.13133700000003 431.070262 201.13133700000003 424.231643 204.130089 418.307279 208.262517L417.429596 207.42140300000005 413.041178 211.80982100000006C413.004608 211.84639100000004 413.004608 211.84639100000004 412.968037 211.88296100000002L262.262455 362.58854299999996 314.009216 414.298734 438.859703 289.44824600000004 714.415772 565.040887 766.162533 513.294126 464.751368 211.88296100000002C464.714798 211.84639100000004 464.714798 211.84639100000004 464.678227 211.80982100000006Z"  horiz-adv-x="1024" />

    
    <glyph glyph-name="error" unicode="&#58885;" d="M512-128C229.248-128 0 101.24800000000005 0 384S229.248 896 512 896s512-229.248 512-512-229.248-512-512-512z m0 938.666667C276.352 810.666667 85.333333 619.648 85.333333 384s191.018667-426.666667 426.666667-426.666667 426.666667 191.018667 426.666667 426.666667S747.648 810.666667 512 810.666667z m198.698667-625.365334a42.666667 42.666667 0 0 0-60.330667 0L512 323.66933300000005l-138.368-138.368a42.666667 42.666667 0 0 0-60.330667 60.330667L451.669333 384 313.301333 522.3679999999999a42.666667 42.666667 0 0 0 60.330667 60.330667L512 444.330667l138.368 138.368a42.624 42.624 0 1 0 60.330667-60.330667L572.330667 384l138.368-138.368a42.666667 42.666667 0 0 0 0-60.330667z"  horiz-adv-x="1024" />

    
    <glyph glyph-name="info" unicode="&#58882;" d="M512 881.792c274.56 0 497.792-223.168 497.792-497.792 0-274.56-223.168-497.792-497.792-497.792C237.44-113.79200000000003 14.208 109.44000000000005 14.208 384 14.208 658.56 237.44 881.792 512 881.792z m0-71.104A427.072 427.072 0 0 1 85.312 384 427.072 427.072 0 0 1 512-42.68799999999999 427.072 427.072 0 0 1 938.688 384 427.072 427.072 0 0 1 512 810.688z m35.584-628.16v-71.104H476.416v71.04h71.168z m0 474.048v-402.944H476.416V656.576h71.168z"  horiz-adv-x="1024" />

    
    <glyph glyph-name="close" unicode="&#58948;" d="M925.468404 73.70593099999996L622.19831 383.99386000000004l303.311027 310.331931c34.682917 27.842115 38.299281 75.80243 8.121981 107.216907-30.135344 31.369452-82.733283 34.259268-117.408013 6.463202L512.000512 496.74276 207.776695 808.006923c-34.675754 27.796066-87.272669 24.90625-117.408013-6.463202-30.178323-31.414477-26.560936-79.375815 8.121981-107.216907l303.311027-310.331931L98.531596 73.70593099999996c-34.724873-27.820626-38.341237-75.846432-8.117888-107.195418 30.135344-31.43699 82.72919-34.326806 117.408013-6.485715l304.178791 311.219137 304.177767-311.219137c34.678824-27.841092 87.271646-24.951275 117.408013 6.485715C963.808618-2.140500999999972 960.146205 45.886329000000046 925.468404 73.70593099999996z"  horiz-adv-x="1024" />

    
    <glyph glyph-name="checked" unicode="&#58897;" d="M823.1-49.299999999999955H204c-67.6 0-122.7 55-122.7 122.7V692.5c0 67.6 55 122.7 122.7 122.7h619.1c67.6 0 122.7-55 122.7-122.7v-619.1c0-67.7-55.1-122.7-122.7-122.7zM204 757.8c-36 0-65.4-29.3-65.4-65.4v-619.1c0-36 29.3-65.4 65.4-65.4h619.1c36 0 65.4 29.3 65.4 65.4V692.5c0 36-29.3 65.4-65.4 65.4H204zM438.2 188.79999999999995h-0.5c-8.5 0.1-16.6 3.7-22.5 9.9L235.3 387.2c-12.1 12.7-11.7 32.9 1.1 45 12.7 12.1 32.9 11.7 45-1.1L439 266l307.5 301.9c12.5 12.3 32.7 12.1 45-0.4 12.3-12.5 12.1-32.7-0.4-45L460.5 197.89999999999998c-5.9-5.8-14-9.1-22.3-9.1z"  horiz-adv-x="1024" />

    
    <glyph glyph-name="not_checked" unicode="&#58906;" d="M102.4 639.488A153.7536 153.7536 0 0 0 256.512 793.6h510.976A153.7536 153.7536 0 0 0 921.6 639.488v-510.976A153.7536 153.7536 0 0 0 767.488-25.600000000000023H256.512A153.7536 153.7536 0 0 0 102.4 128.51199999999994V639.488z m51.2 0v-510.976C153.6 71.2704 199.424 25.600000000000023 256.512 25.600000000000023h510.976c57.1904 0 102.912 45.824 102.912 102.912V639.488C870.4 696.7296 824.576 742.4 767.488 742.4H256.512C199.2704 742.4 153.6 696.576 153.6 639.488z"  horiz-adv-x="1024" />

    
    <glyph glyph-name="github" unicode="&#58920;" d="M0 371.00800000000004q0-166.016 95.488-298.496t247.488-185.504q6.016-0.992 10.016-0.992t6.496 1.504 4 3.008 2.016 4.992 0.512 4.992v100.512q-36.992-4-66.016 0.512t-45.504 14.016-28.992 23.488-16.992 25.504-8.992 24-5.504 14.496q-8.992 15.008-27.008 27.488t-27.008 20-2.016 14.496q50.016 26.016 112.992-66.016 34.016-51.008 119.008-30.016 10.016 40.992 40 70.016Q293.984 160 237.984 225.024t-56 158.016q0 87.008 55.008 151.008-22.016 64.992 6.016 136.992 28.992 2.016 64.992-11.488t50.496-23.008 25.504-17.504q56.992 16 128.512 16t129.504-16q12.992 8.992 28.992 19.008t48.992 21.504 60.992 9.504q27.008-71.008 7.008-135.008 56-64 56-151.008 0-92.992-56.992-158.496t-172-85.504q43.008-43.008 43.008-104v-128.992q0-0.992 0.992-3.008 0-6.016 0.512-8.992t4.512-6.016 12-3.008q152.992 52 250.496 185.504t97.504 300.512q0 104-40.512 199.008t-108.992 163.488-163.488 108.992T512.032 883.04 313.024 842.528 149.536 733.5360000000001t-108.992-163.488-40.512-199.008z"  horiz-adv-x="1024" />

    


  </font>
</defs>
</svg>
